<svg width="54" height="54" viewBox="0 0 54 54" fill="none" xmlns="http://www.w3.org/2000/svg">
<path d="M0.102199 50.5161C0.590995 45.3838 4.90157 41.4642 10.0572 41.4642H12.5357L11.9024 46.32C11.4286 49.9521 8.47354 52.7547 4.82143 53.0357V53.0357L0 53.9999V51.5892L0.102199 50.5161Z" fill="#F7F7F2"/>
<path d="M10.3381 40.5335C11.1349 36.151 13.4462 32.1877 16.8681 29.3361L51.0183 0.877605C51.673 0.332006 52.5635 0.163999 53.372 0.433505V0.433505C53.4638 0.464123 53.5359 0.536202 53.5665 0.628057V0.628057C53.836 1.43658 53.668 2.32698 53.1224 2.9817L24.6639 37.1319C21.8123 40.5539 17.849 42.8651 13.4665 43.6619L9.64288 44.3571L10.3381 40.5335Z" fill="#F7F7F2"/>
<path d="M10.3381 40.5335C11.1349 36.151 13.4462 32.1877 16.8681 29.3361L51.0183 0.877605C51.673 0.332006 52.5635 0.163999 53.372 0.433505V0.433505C53.4638 0.464123 53.5359 0.536202 53.5665 0.628057V0.628057C53.836 1.43658 53.668 2.32698 53.1224 2.9817L24.6639 37.1319C21.8123 40.5539 17.849 42.8651 13.4665 43.6619L9.64288 44.3571L10.3381 40.5335Z" fill="#F7F7F2"/>
</svg>
