<svg width="74" height="70" viewBox="0 0 74 70" fill="none" xmlns="http://www.w3.org/2000/svg">
<rect x="-6.10352e-05" y="2" width="36" height="68" fill="#F7F7F2"/>
<rect x="40.9999" y="18" width="3" height="2" fill="#F7F7F2"/>
<rect x="59.9999" y="18" width="3" height="2" fill="#F7F7F2"/>
<rect x="28.9999" width="3" height="2" fill="#F7F7F2"/>
<rect x="7.99994" width="3" height="2" fill="#F7F7F2"/>
<rect x="37.9999" y="20" width="36" height="50" fill="#F7F7F2"/>
<path d="M53.9999 61C53.9999 59.8954 54.8954 59 55.9999 59V59C57.1045 59 57.9999 59.8954 57.9999 61V70H53.9999V61Z" fill="#353535"/>
<path d="M15.9999 61C15.9999 59.8954 16.8954 59 17.9999 59V59C19.1045 59 19.9999 59.8954 19.9999 61V70H15.9999V61Z" fill="#353535"/>
<rect x="3.99994" y="44" width="4" height="11" fill="#353535"/>
<rect x="3.99994" y="28" width="4" height="11" fill="#353535"/>
<rect x="41.9999" y="43" width="4" height="11" fill="#353535"/>
<rect x="3.99994" y="12" width="4" height="11" fill="#353535"/>
<rect x="41.9999" y="27" width="4" height="11" fill="#353535"/>
<rect x="9.99994" y="44" width="4" height="11" fill="#353535"/>
<rect x="9.99994" y="28" width="4" height="11" fill="#353535"/>
<rect x="47.9999" y="43" width="4" height="11" fill="#353535"/>
<rect x="9.99994" y="12" width="4" height="11" fill="#353535"/>
<rect x="47.9999" y="27" width="4" height="11" fill="#353535"/>
<rect x="15.9999" y="44" width="4" height="11" fill="#353535"/>
<rect x="15.9999" y="28" width="4" height="11" fill="#353535"/>
<rect x="53.9999" y="43" width="4" height="11" fill="#353535"/>
<rect x="15.9999" y="12" width="4" height="11" fill="#353535"/>
<rect x="53.9999" y="27" width="4" height="11" fill="#353535"/>
<rect x="21.9999" y="44" width="4" height="11" fill="#353535"/>
<rect x="21.9999" y="58" width="10" height="11" fill="#353535"/>
<rect x="41.9999" y="58" width="10" height="11" fill="#353535"/>
<rect x="59.9999" y="58" width="10" height="11" fill="#353535"/>
<rect x="3.99994" y="58" width="10" height="11" fill="#353535"/>
<rect x="21.9999" y="28" width="4" height="11" fill="#353535"/>
<rect x="59.9999" y="43" width="4" height="11" fill="#353535"/>
<rect x="21.9999" y="12" width="4" height="11" fill="#353535"/>
<rect x="59.9999" y="27" width="4" height="11" fill="#353535"/>
<rect x="27.9999" y="44" width="4" height="11" fill="#353535"/>
<rect x="27.9999" y="28" width="4" height="11" fill="#353535"/>
<rect x="65.9999" y="43" width="4" height="11" fill="#353535"/>
<rect x="27.9999" y="12" width="4" height="11" fill="#353535"/>
<rect x="65.9999" y="27" width="4" height="11" fill="#353535"/>
</svg>
